<?xml version="1.0" standalone="no"?>
<!DOCTYPE svg PUBLIC "-//W3C//DTD SVG 20010904//EN"
 "http://www.w3.org/TR/2001/REC-SVG-20010904/DTD/svg10.dtd">
<svg version="1.0" xmlns="http://www.w3.org/2000/svg"
 width="234.000000pt" height="221.000000pt" viewBox="0 0 234.000000 221.000000"
 preserveAspectRatio="xMidYMid meet">

<g transform="translate(0.000000,221.000000) scale(0.100000,-0.100000)"
fill="#000000" stroke="none">
<path d="M991 2172 c-13 -25 5 -52 34 -52 22 0 25 -5 25 -34 l0 -33 -61 -7
c-94 -9 -177 -34 -269 -79 -70 -34 -102 -58 -181 -136 -78 -79 -102 -111 -136
-181 -51 -103 -71 -178 -80 -287 l-6 -83 -78 0 c-70 0 -80 -2 -90 -22 -14 -27
-5 -109 16 -141 24 -37 58 -47 165 -47 l100 0 0 -34 c0 -18 9 -45 20 -59 29
-37 310 -292 548 -497 173 -149 199 -176 182 -182 -19 -7 -21 -15 -18 -105 l3
-98 240 0 240 0 3 98 c2 80 0 98 -13 103 -20 8 -20 68 1 85 37 31 47 72 54
219 l7 145 61 132 c34 72 62 146 62 162 l0 31 135 0 c143 0 174 7 200 47 21
32 30 114 16 141 -11 20 -20 22 -91 22 l-80 0 0 50 c0 68 -26 191 -56 264 -54
133 -180 278 -308 355 -75 45 -206 88 -294 97 l-72 7 0 33 c0 29 3 34 25 34
29 0 47 28 34 53 -9 15 -29 17 -169 17 -142 0 -160 -2 -169 -18z m199 -87 c0
-32 -2 -35 -30 -35 -28 0 -30 3 -30 35 0 32 2 35 30 35 28 0 30 -3 30 -35z
m208 -121 c42 -8 115 -34 162 -56 70 -33 100 -56 171 -128 70 -70 95 -103 127
-171 42 -87 72 -205 72 -284 l0 -45 -770 0 -770 0 0 45 c0 79 30 197 72 285
33 68 57 101 127 171 70 70 103 94 171 127 47 22 117 47 155 56 99 20 382 21
483 0z m700 -786 l-3 -33 -935 0 -935 0 -3 33 -3 32 941 0 941 0 -3 -32z
m-1520 -120 c5 -7 29 -53 51 -103 41 -87 41 -89 14 -65 -69 61 -143 135 -143
145 0 31 57 47 78 23z m247 -128 l70 -135 184 -73 184 -73 74 17 c41 10 81 23
88 29 7 5 54 87 105 180 51 94 97 176 103 183 15 19 97 12 110 -10 8 -12 -5
-51 -61 -173 l-72 -157 0 -130 0 -129 -35 -46 c-24 -31 -35 -56 -35 -79 l0
-34 -113 0 -113 0 -255 220 -254 220 -67 147 c-74 163 -76 187 -15 181 30 -3
36 -11 102 -138z m725 135 c0 -8 -160 -298 -169 -308 -4 -4 -32 -14 -61 -22
l-53 -14 -164 66 -164 65 -55 109 -54 109 360 0 c198 0 360 -2 360 -5z m30
-870 l0 -35 -175 0 -175 0 0 35 0 35 175 0 175 0 0 -35z"/>
</g>
</svg>
